<svg width="40" height="40" viewBox="0 0 40 40" fill="none" xmlns="http://www.w3.org/2000/svg">
<rect x="0.5" y="0.5" width="39" height="39" rx="19.5" stroke="#5E5E5E"/>
<path d="M27.2806 26.2194C27.3503 26.2891 27.4056 26.3718 27.4433 26.4629C27.481 26.5539 27.5004 26.6515 27.5004 26.7501C27.5004 26.8486 27.481 26.9462 27.4433 27.0372C27.4056 27.1283 27.3503 27.211 27.2806 27.2807C27.2109 27.3504 27.1282 27.4056 27.0372 27.4433C26.9461 27.4811 26.8486 27.5005 26.75 27.5005C26.6515 27.5005 26.5539 27.4811 26.4628 27.4433C26.3718 27.4056 26.2891 27.3504 26.2194 27.2807L20 21.0604L13.7806 27.2807C13.6399 27.4214 13.449 27.5005 13.25 27.5005C13.051 27.5005 12.8601 27.4214 12.7194 27.2807C12.5786 27.1399 12.4996 26.9491 12.4996 26.7501C12.4996 26.551 12.5786 26.3602 12.7194 26.2194L18.9397 20.0001L12.7194 13.7807C12.5786 13.6399 12.4996 13.4491 12.4996 13.2501C12.4996 13.051 12.5786 12.8602 12.7194 12.7194C12.8601 12.5787 13.051 12.4996 13.25 12.4996C13.449 12.4996 13.6399 12.5787 13.7806 12.7194L20 18.9397L26.2194 12.7194C26.3601 12.5787 26.551 12.4996 26.75 12.4996C26.949 12.4996 27.1399 12.5787 27.2806 12.7194C27.4214 12.8602 27.5004 13.051 27.5004 13.2501C27.5004 13.4491 27.4214 13.6399 27.2806 13.7807L21.0603 20.0001L27.2806 26.2194Z" fill="white"/>
</svg>
