<svg width="40" height="40" viewBox="0 0 40 40" fill="none" xmlns="http://www.w3.org/2000/svg">
<rect x="0.5" y="0.5" width="39" height="39" rx="19.5" stroke="#5E5E5E"/>
<path d="M28.9541 12.5H11.0478C10.6376 12.5 10.2442 12.6628 9.95401 12.9527C9.66379 13.2425 9.5005 13.6358 9.5 14.0459V25.9522C9.5 26.3624 9.66281 26.7558 9.95268 27.046C10.2425 27.3362 10.6358 27.4995 11.0459 27.5H28.9522C29.3624 27.5 29.7558 27.3372 30.046 27.0473C30.3362 26.7575 30.4995 26.3642 30.5 25.9541V14.0478C30.5 13.6376 30.3372 13.2442 30.0473 12.954C29.7575 12.6638 29.3642 12.5005 28.9541 12.5ZM29 25.9541C29 25.9601 28.9988 25.9661 28.9965 25.9716C28.9942 25.9772 28.9908 25.9823 28.9865 25.9865C28.9823 25.9908 28.9772 25.9942 28.9716 25.9965C28.9661 25.9988 28.9601 26 28.9541 26H11.0478C11.0418 26 11.0358 25.9988 11.0302 25.9965C11.0247 25.9942 11.0196 25.9908 11.0153 25.9865C11.0111 25.9823 11.0077 25.9772 11.0054 25.9716C11.0031 25.9661 11.0019 25.9601 11.0019 25.9541V14.0478C11.0019 14.0356 11.0067 14.0239 11.0153 14.0153C11.0239 14.0067 11.0356 14.0019 11.0478 14.0019H28.9541C28.9662 14.0019 28.9779 14.0067 28.9865 14.0153C28.9952 14.0239 29 14.0356 29 14.0478V25.9541ZM27.5 20C27.5 20.1989 27.421 20.3897 27.2803 20.5303C27.1397 20.671 26.9489 20.75 26.75 20.75H13.25C13.0511 20.75 12.8603 20.671 12.7197 20.5303C12.579 20.3897 12.5 20.1989 12.5 20C12.5 19.8011 12.579 19.6103 12.7197 19.4697C12.8603 19.329 13.0511 19.25 13.25 19.25H26.75C26.9489 19.25 27.1397 19.329 27.2803 19.4697C27.421 19.6103 27.5 19.8011 27.5 20ZM27.5 17C27.5 17.1989 27.421 17.3897 27.2803 17.5303C27.1397 17.671 26.9489 17.75 26.75 17.75H13.25C13.0511 17.75 12.8603 17.671 12.7197 17.5303C12.579 17.3897 12.5 17.1989 12.5 17C12.5 16.8011 12.579 16.6103 12.7197 16.4697C12.8603 16.329 13.0511 16.25 13.25 16.25H26.75C26.9489 16.25 27.1397 16.329 27.2803 16.4697C27.421 16.6103 27.5 16.8011 27.5 17ZM14.75 23C14.75 23.1989 14.671 23.3897 14.5303 23.5303C14.3897 23.671 14.1989 23.75 14 23.75H13.25C13.0511 23.75 12.8603 23.671 12.7197 23.5303C12.579 23.3897 12.5 23.1989 12.5 23C12.5 22.8011 12.579 22.6103 12.7197 22.4697C12.8603 22.329 13.0511 22.25 13.25 22.25H14C14.1989 22.25 14.3897 22.329 14.5303 22.4697C14.671 22.6103 14.75 22.8011 14.75 23ZM23.75 23C23.75 23.1989 23.671 23.3897 23.5303 23.5303C23.3897 23.671 23.1989 23.75 23 23.75H17C16.8011 23.75 16.6103 23.671 16.4697 23.5303C16.329 23.3897 16.25 23.1989 16.25 23C16.25 22.8011 16.329 22.6103 16.4697 22.4697C16.6103 22.329 16.8011 22.25 17 22.25H23C23.1989 22.25 23.3897 22.329 23.5303 22.4697C23.671 22.6103 23.75 22.8011 23.75 23ZM27.5 23C27.5 23.1989 27.421 23.3897 27.2803 23.5303C27.1397 23.671 26.9489 23.75 26.75 23.75H26C25.8011 23.75 25.6103 23.671 25.4697 23.5303C25.329 23.3897 25.25 23.1989 25.25 23C25.25 22.8011 25.329 22.6103 25.4697 22.4697C25.6103 22.329 25.8011 22.25 26 22.25H26.75C26.9489 22.25 27.1397 22.329 27.2803 22.4697C27.421 22.6103 27.5 22.8011 27.5 23Z" fill="white"/>
</svg>
